<svg class="rv" data-rv="map" viewBox="0 0 400 220" role="img" aria-label="Who is linked to whom" preserveAspectRatio="xMidYMid meet"><circle cx="24" cy="24" r="1.1" fill="var(--ink3)" opacity=".35" /><circle cx="24" cy="54" r="1.1" fill="var(--ink3)" opacity=".35" /><circle cx="24" cy="84" r="1.1" fill="var(--ink3)" opacity=".35" /><circle cx="24" cy="114" r="1.1" fill="var(--ink3)" opacity=".35" /><circle cx="24" cy="144" r="1.1" fill="var(--ink3)" opacity=".35" /><circle cx="54" cy="24" r="1.1" fill="var(--ink3)" opacity=".35" /><circle cx="54" cy="54" r="1.1" fill="var(--ink3)" opacity=".35" /><circle cx="54" cy="84" r="1.1" fill="var(--ink3)" opacity=".35" /><circle cx="54" cy="114" r="1.1" fill="var(--ink3)" opacity=".35" /><circle cx="84" cy="24" r="1.1" fill="var(--ink3)" opacity=".35" /><circle cx="84" cy="84" r="1.1" fill="var(--ink3)" opacity=".35" /><circle cx="84" cy="114" r="1.1" fill="var(--ink3)" opacity=".35" /><circle cx="84" cy="144" r="1.1" fill="var(--ink3)" opacity=".35" /><circle cx="114" cy="24" r="1.1" fill="var(--ink3)" opacity=".35" /><circle cx="114" cy="54" r="1.1" fill="var(--ink3)" opacity=".35" /><circle cx="114" cy="84" r="1.1" fill="var(--ink3)" opacity=".35" /><circle cx="114" cy="114" r="1.1" fill="var(--ink3)" opacity=".35" /><circle cx="114" cy="144" r="1.1" fill="var(--ink3)" opacity=".35" /><circle cx="144" cy="24" r="1.1" fill="var(--ink3)" opacity=".35" /><circle cx="144" cy="54" r="1.1" fill="var(--ink3)" opacity=".35" /><circle cx="144" cy="84" r="1.1" fill="var(--ink3)" opacity=".35" /><circle cx="144" cy="114" r="1.1" fill="var(--ink3)" opacity=".35" /><circle cx="144" cy="144" r="1.1" fill="var(--ink3)" opacity=".35" /><circle cx="174" cy="24" r="1.1" fill="var(--ink3)" opacity=".35" /><circle cx="174" cy="54" r="1.1" fill="var(--ink3)" opacity=".35" /><circle cx="174" cy="84" r="1.1" fill="var(--ink3)" opacity=".35" /><circle cx="174" cy="114" r="1.1" fill="var(--ink3)" opacity=".35" /><circle cx="174" cy="144" r="1.1" fill="var(--ink3)" opacity=".35" /><circle cx="204" cy="24" r="1.1" fill="var(--ink3)" opacity=".35" /><circle cx="204" cy="54" r="1.1" fill="var(--ink3)" opacity=".35" /><circle cx="204" cy="84" r="1.1" fill="var(--ink3)" opacity=".35" /><circle cx="204" cy="114" r="1.1" fill="var(--ink3)" opacity=".35" /><circle cx="204" cy="144" r="1.1" fill="var(--ink3)" opacity=".35" /><circle cx="204" cy="174" r="1.1" fill="var(--ink3)" opacity=".35" /><circle cx="204" cy="204" r="1.1" fill="var(--ink3)" opacity=".35" /><circle cx="234" cy="24" r="1.1" fill="var(--ink3)" opacity=".35" /><circle cx="234" cy="54" r="1.1" fill="var(--ink3)" opacity=".35" /><circle cx="234" cy="84" r="1.1" fill="var(--ink3)" opacity=".35" /><circle cx="234" cy="114" r="1.1" fill="var(--ink3)" opacity=".35" /><circle cx="234" cy="144" r="1.1" fill="var(--ink3)" opacity=".35" /><circle cx="234" cy="174" r="1.1" fill="var(--ink3)" opacity=".35" /><circle cx="234" cy="204" r="1.1" fill="var(--ink3)" opacity=".35" /><circle cx="264" cy="24" r="1.1" fill="var(--ink3)" opacity=".35" /><circle cx="264" cy="54" r="1.1" fill="var(--ink3)" opacity=".35" /><circle cx="264" cy="84" r="1.1" fill="var(--ink3)" opacity=".35" /><circle cx="264" cy="174" r="1.1" fill="var(--ink3)" opacity=".35" /><circle cx="264" cy="204" r="1.1" fill="var(--ink3)" opacity=".35" /><circle cx="294" cy="24" r="1.1" fill="var(--ink3)" opacity=".35" /><circle cx="294" cy="84" r="1.1" fill="var(--ink3)" opacity=".35" /><circle cx="294" cy="144" r="1.1" fill="var(--ink3)" opacity=".35" /><circle cx="294" cy="204" r="1.1" fill="var(--ink3)" opacity=".35" /><circle cx="324" cy="24" r="1.1" fill="var(--ink3)" opacity=".35" /><circle cx="324" cy="54" r="1.1" fill="var(--ink3)" opacity=".35" /><circle cx="324" cy="84" r="1.1" fill="var(--ink3)" opacity=".35" /><circle cx="324" cy="114" r="1.1" fill="var(--ink3)" opacity=".35" /><circle cx="324" cy="144" r="1.1" fill="var(--ink3)" opacity=".35" /><circle cx="324" cy="204" r="1.1" fill="var(--ink3)" opacity=".35" /><circle cx="354" cy="24" r="1.1" fill="var(--ink3)" opacity=".35" /><circle cx="354" cy="54" r="1.1" fill="var(--ink3)" opacity=".35" /><circle cx="354" cy="84" r="1.1" fill="var(--ink3)" opacity=".35" /><circle cx="354" cy="114" r="1.1" fill="var(--ink3)" opacity=".35" /><circle cx="354" cy="144" r="1.1" fill="var(--ink3)" opacity=".35" /><circle cx="354" cy="204" r="1.1" fill="var(--ink3)" opacity=".35" /><circle cx="384" cy="24" r="1.1" fill="var(--ink3)" opacity=".35" /><circle cx="384" cy="54" r="1.1" fill="var(--ink3)" opacity=".35" /><circle cx="384" cy="84" r="1.1" fill="var(--ink3)" opacity=".35" /><circle cx="384" cy="114" r="1.1" fill="var(--ink3)" opacity=".35" /><circle cx="384" cy="144" r="1.1" fill="var(--ink3)" opacity=".35" /><circle cx="384" cy="174" r="1.1" fill="var(--ink3)" opacity=".35" /><circle cx="384" cy="204" r="1.1" fill="var(--ink3)" opacity=".35" /><line x1="84.0" y1="58.0" x2="170.0" y2="100.0" stroke="var(--ink)" stroke-width="1.6" stroke-linecap="round" opacity="0.6" class="l-draw" style="--i:0.00" pathLength="1" /><line x1="170.0" y1="100.0" x2="290.0" y2="56.0" stroke="var(--ink)" stroke-width="1.6" stroke-linecap="round" opacity="0.6" class="l-draw" style="--i:1.00" pathLength="1" /><line x1="290.0" y1="56.0" x2="330.0" y2="168.0" stroke="var(--ink)" stroke-width="1.6" stroke-linecap="round" opacity="0.6" class="l-draw" style="--i:2.00" pathLength="1" /><line x1="170.0" y1="100.0" x2="270.0" y2="132.0" stroke="var(--ink)" stroke-width="1.6" stroke-linecap="round" opacity="0.6" class="l-draw" style="--i:3.00" pathLength="1" /><line x1="270.0" y1="132.0" x2="330.0" y2="168.0" stroke="var(--ink)" stroke-width="1.6" stroke-linecap="round" opacity="0.6" class="l-draw" style="--i:4.00" pathLength="1" /><line x1="170.0" y1="100.0" x2="58.0" y2="140.0" stroke="var(--ink)" stroke-width="1.6" stroke-linecap="round" opacity="0.6" class="l-draw" style="--i:5.00" pathLength="1" /><circle cx="84.0" cy="58.0" r="6" fill="var(--paper)" stroke="var(--ink)" stroke-width="1.6" opacity="1" /><circle cx="170.0" cy="100.0" r="9" fill="var(--paper)" stroke="var(--ink)" stroke-width="1.6" opacity="1" /><circle cx="290.0" cy="56.0" r="6" fill="var(--paper)" stroke="var(--ink)" stroke-width="1.6" opacity="1" /><circle cx="330.0" cy="168.0" r="6" fill="var(--paper)" stroke="var(--ink)" stroke-width="1.6" opacity="1" /><circle cx="270.0" cy="132.0" r="6" fill="var(--paper)" stroke="var(--ink)" stroke-width="1.6" opacity="1" /><circle cx="58.0" cy="140.0" r="6" fill="var(--paper)" stroke="var(--ink)" stroke-width="1.6" opacity="1" /><text x="84.0" y="44.0" font-size="11" font-weight="400" fill="var(--ink2)" text-anchor="middle" font-family="Instrument Sans,Arial,sans-serif">Barnhart's office</text><text x="170.0" y="132.0" font-size="11" font-weight="600" fill="var(--ink)" text-anchor="middle" font-family="Instrument Sans,Arial,sans-serif" data-in-ring="1">Council staff</text><rect x="130.1" y="118.2" width="79.9" height="20.4" rx="10.2" stroke="var(--ring)" pathLength="1" stroke-width="1.6" stroke-linecap="round" stroke-linejoin="round" fill="none" class="l-pulse" /><text x="290.0" y="42.0" font-size="11" font-weight="400" fill="var(--ink2)" text-anchor="middle" font-family="Instrument Sans,Arial,sans-serif">Corvane</text><text x="330.0" y="190.0" font-size="11" font-weight="400" fill="var(--ink2)" text-anchor="middle" font-family="Instrument Sans,Arial,sans-serif">Riders' union</text><text x="270.0" y="115.0" font-size="11" font-weight="400" fill="var(--ink2)" text-anchor="middle" font-family="Instrument Sans,Arial,sans-serif">Depot</text><text x="58.0" y="162.0" font-size="11" font-weight="400" fill="var(--ink2)" text-anchor="middle" font-family="Instrument Sans,Arial,sans-serif">Elm Street</text></svg>
