<svg class="rv" data-rv="sentiment" viewBox="0 0 400 220" role="img" aria-label="Hear how a response lands" preserveAspectRatio="xMidYMid meet"><line x1="30.0" y1="184.0" x2="370.0" y2="184.0" stroke="var(--ink3)" stroke-width="1.6" stroke-linecap="round" opacity="1" /><path d="M30 126 L70 122 L110 138 L150 148 L190 114 L230 84 L270 72 L310 58 L370 50 L370 74 L310 82 L270 96 L230 108 L190 138 L150 172 L110 162 L70 146 L30 150 Z" fill="var(--ink)" opacity=".08" /><path d="M30 138 L70 134 L110 150 L150 160 L190 126 L230 96 L270 84 L310 70 L370 62" stroke="var(--ink)" stroke-width="1.6" stroke-linecap="round" stroke-linejoin="round" fill="none" /><circle cx="150" cy="160" r="4" fill="var(--ink)" data-f="1" /><circle cx="150" cy="160" r="11" stroke="var(--ring)" pathLength="1" stroke-width="1.6" stroke-linecap="round" stroke-linejoin="round" fill="none" data-f="1" /><text x="30.0" y="30.0" font-size="11" font-weight="600" fill="var(--ink2)" text-anchor="start" font-family="Instrument Sans,Arial,sans-serif">How riders feel about Route 9</text><text x="252.0" y="132.0" font-size="11" font-weight="500" fill="var(--ink2)" text-anchor="start" font-family="Instrument Sans,Arial,sans-serif">Corvane's letter lands</text><path d="M245.0 128.0 L232.8 103.6" stroke="var(--ink2)" stroke-width="1" stroke-dasharray="1.5 3" stroke-linecap="round" fill="none" /><circle cx="231.0" cy="100.0" r="1.8" fill="var(--ink2)" /><text x="170.0" y="204.0" font-size="11" font-weight="600" fill="var(--ink2)" text-anchor="start" font-family="Instrument Sans,Arial,sans-serif">Statement out, Tue 9:00 AM</text><text x="30.0" y="204.0" font-size="11" font-weight="400" fill="var(--ink3)" text-anchor="start" font-family="Instrument Sans,Arial,sans-serif">Mon</text><text x="370.0" y="204.0" font-size="11" font-weight="400" fill="var(--ink3)" text-anchor="end" font-family="Instrument Sans,Arial,sans-serif">Fri</text><g class="dl" opacity="0" aria-hidden="true"><circle cx="193.0" cy="36.0" r="2.6" fill="var(--ring)"/><text x="199.0" y="40.0" font-size="11" font-weight="600" fill="var(--ink)" font-family="Instrument Sans,Arial,sans-serif">Turned within a day</text></g></svg>
